<svg width="75" height="76" viewBox="0 0 75 76" fill="none" xmlns="http://www.w3.org/2000/svg">
<path d="M0.5 37.5C0.5 17.0655 17.0655 0.5 37.5 0.5C57.9345 0.5 74.5 17.0655 74.5 37.5V38.5C74.5 58.9345 57.9345 75.5 37.5 75.5C17.0655 75.5 0.5 58.9345 0.5 38.5V37.5Z" fill="#444343"/>
<path d="M0.5 37.5C0.5 17.0655 17.0655 0.5 37.5 0.5C57.9345 0.5 74.5 17.0655 74.5 37.5V38.5C74.5 58.9345 57.9345 75.5 37.5 75.5C17.0655 75.5 0.5 58.9345 0.5 38.5V37.5Z" stroke="#2C2C2C" stroke-linecap="round"/>
<path d="M37.5 53.1666V22.8333M37.5 22.8333L22.625 37.9999M37.5 22.8333L52.375 37.9999" stroke="#F5F5F5" stroke-width="2" stroke-linecap="round" stroke-linejoin="round"/>
</svg>
